<svg width="150" height="42" viewBox="0 0 150 42" fill="none" xmlns="http://www.w3.org/2000/svg">
<g clip-path="url(#clip0)">
<path d="M26.7452 41.7817C24.2924 41.7817 22.0754 41.2152 20.0943 40.0821C18.1446 38.949 16.588 37.4068 15.4245 35.4554C14.2924 33.4726 13.7106 31.2536 13.6792 28.7987V6.51506C13.6792 5.94853 13.8364 5.50789 14.1509 5.19315C14.4968 4.84694 14.9528 4.67383 15.5188 4.67383C16.0534 4.67383 16.4779 4.84694 16.7924 5.19315C17.1383 5.50789 17.3113 5.94853 17.3113 6.51506V20.3951C18.349 18.9158 19.7169 17.7355 21.415 16.8543C23.1446 15.9415 25.0628 15.4852 27.1698 15.4852C29.5912 15.4852 31.761 16.0674 33.6792 17.232C35.5974 18.365 37.1069 19.923 38.2075 21.9059C39.3396 23.8887 39.9056 26.1234 39.9056 28.6098C39.9056 31.1277 39.3239 33.3781 38.1603 35.361C37.0283 37.3439 35.4717 38.9176 33.4905 40.0821C31.5094 41.2152 29.261 41.7817 26.7452 41.7817ZM26.7452 38.4769C28.5691 38.4769 30.2044 38.052 31.6509 37.2022C33.0974 36.321 34.2295 35.1407 35.0471 33.6614C35.8962 32.1821 36.3207 30.4983 36.3207 28.6098C36.3207 26.7529 35.8962 25.0847 35.0471 23.6055C34.2295 22.0947 33.0974 20.9144 31.6509 20.0646C30.2044 19.2148 28.5691 18.7899 26.7452 18.7899C24.9528 18.7899 23.3333 19.2148 21.8867 20.0646C20.4402 20.9144 19.3081 22.0947 18.4905 23.6055C17.6729 25.0847 17.2641 26.7529 17.2641 28.6098C17.2641 30.4983 17.6729 32.1821 18.4905 33.6614C19.3081 35.1407 20.4402 36.321 21.8867 37.2022C23.3333 38.052 24.9528 38.4769 26.7452 38.4769ZM58.7279 41.7817C56.1808 41.7817 53.9166 41.2309 51.9355 40.1293C49.9858 38.9963 48.4449 37.4383 47.3129 35.4554C46.2122 33.4726 45.6619 31.2064 45.6619 28.657C45.6619 26.0762 46.1808 23.81 47.2185 21.8586C48.2877 19.8758 49.75 18.3178 51.6053 17.1848C53.4606 16.0517 55.599 15.4852 58.0204 15.4852C60.4103 15.4852 62.4858 16.036 64.2468 17.1375C66.0393 18.2077 67.4229 19.7027 68.3978 21.6226C69.3726 23.5425 69.86 25.73 69.86 28.1849C69.86 28.6885 69.7028 29.0977 69.3883 29.4124C69.0739 29.6957 68.6651 29.8373 68.1619 29.8373H48.1147V26.8158H68.5393L66.511 28.2793C66.5424 26.4539 66.2122 24.8172 65.5204 23.3694C64.8286 21.9216 63.838 20.7885 62.5487 19.9702C61.2908 19.1519 59.7814 18.7427 58.0204 18.7427C56.2279 18.7427 54.6556 19.1676 53.3034 20.0174C51.9512 20.8672 50.8978 22.0475 50.143 23.5582C49.4198 25.0375 49.0581 26.7371 49.0581 28.657C49.0581 30.577 49.4669 32.2766 50.2845 33.7558C51.1336 35.2351 52.2814 36.3996 53.7279 37.2494C55.1745 38.0992 56.8412 38.5241 58.7279 38.5241C59.86 38.5241 60.9921 38.3353 62.1242 37.9576C63.2877 37.5485 64.2154 37.0449 64.9072 36.4469C65.2531 36.1636 65.6462 36.022 66.0864 36.022C66.5267 35.9905 66.904 36.1006 67.2185 36.3524C67.6273 36.7301 67.8317 37.1393 67.8317 37.5799C67.8632 38.0206 67.6902 38.3982 67.3128 38.713C66.2751 39.5943 64.9544 40.3339 63.3506 40.9319C61.7468 41.4984 60.2059 41.7817 58.7279 41.7817ZM86.4509 41.7817C84.0295 41.7817 81.8597 41.2152 79.9415 40.0821C78.0232 38.9176 76.4981 37.3439 75.366 35.361C74.2654 33.3781 73.7151 31.1435 73.7151 28.657C73.7151 26.1391 74.2811 23.8887 75.4132 21.9059C76.5767 19.923 78.149 18.365 80.1301 17.232C82.1113 16.0674 84.344 15.4852 86.8283 15.4852C89.3125 15.4852 91.5295 16.0674 93.4792 17.232C95.4603 18.365 97.0169 19.923 98.149 21.9059C99.3125 23.8887 99.91 26.1391 99.9415 28.657L98.4792 29.7901C98.4792 32.0562 97.9446 34.102 96.8754 35.9275C95.8377 37.7216 94.4069 39.1536 92.583 40.2237C90.7905 41.2624 88.7465 41.7817 86.4509 41.7817ZM86.8283 38.4769C88.6522 38.4769 90.2717 38.052 91.6868 37.2022C93.1333 36.3524 94.2654 35.1879 95.083 33.7086C95.932 32.1979 96.3566 30.514 96.3566 28.657C96.3566 26.7686 95.932 25.0847 95.083 23.6055C94.2654 22.1262 93.1333 20.9616 91.6868 20.1118C90.2717 19.2306 88.6522 18.7899 86.8283 18.7899C85.0358 18.7899 83.4163 19.2306 81.9698 20.1118C80.5232 20.9616 79.3754 22.1262 78.5264 23.6055C77.6773 25.0847 77.2528 26.7686 77.2528 28.657C77.2528 30.514 77.6773 32.1979 78.5264 33.7086C79.3754 35.1879 80.5232 36.3524 81.9698 37.2022C83.4163 38.052 85.0358 38.4769 86.8283 38.4769ZM98.1018 41.5457C97.5673 41.5457 97.127 41.3883 96.7811 41.0735C96.4352 40.7273 96.2622 40.2867 96.2622 39.7516V31.6785L97.1584 27.9489L99.9415 28.657V39.7516C99.9415 40.2867 99.7685 40.7273 99.4226 41.0735C99.0767 41.3883 98.6364 41.5457 98.1018 41.5457ZM141.864 41.5457C141.329 41.5457 140.889 41.3883 140.543 41.0735C140.197 40.7273 140.024 40.2867 140.024 39.7516V26.1549C140.024 23.9202 139.442 22.1577 138.279 20.8672C137.115 19.5453 135.622 18.8844 133.798 18.8844C131.848 18.8844 130.244 19.5453 128.986 20.8672C127.76 22.1577 127.163 23.8887 127.194 26.0604H123.939C123.971 23.9517 124.427 22.0947 125.307 20.4895C126.188 18.8844 127.398 17.6411 128.939 16.7599C130.48 15.8786 132.225 15.4379 134.175 15.4379C136.03 15.4379 137.666 15.8786 139.081 16.7599C140.527 17.6411 141.644 18.8844 142.43 20.4895C143.247 22.0947 143.656 23.9831 143.656 26.1549V39.7516C143.656 40.2867 143.483 40.7273 143.137 41.0735C142.823 41.3883 142.398 41.5457 141.864 41.5457ZM108.845 41.5457C108.279 41.5457 107.823 41.3883 107.477 41.0735C107.163 40.7273 107.005 40.2867 107.005 39.7516V17.5624C107.005 17.0274 107.163 16.5867 107.477 16.2405C107.823 15.8943 108.279 15.7212 108.845 15.7212C109.38 15.7212 109.804 15.8943 110.119 16.2405C110.464 16.5867 110.637 17.0274 110.637 17.5624V39.7516C110.637 40.2867 110.464 40.7273 110.119 41.0735C109.804 41.3883 109.38 41.5457 108.845 41.5457ZM125.402 41.5457C124.867 41.5457 124.427 41.3883 124.081 41.0735C123.735 40.7273 123.562 40.2867 123.562 39.7516V26.1549C123.562 23.9202 122.98 22.1577 121.817 20.8672C120.653 19.5453 119.159 18.8844 117.336 18.8844C115.386 18.8844 113.782 19.5296 112.524 20.82C111.266 22.079 110.637 23.7314 110.637 25.7772H108.043C108.106 23.7628 108.546 21.9845 109.364 20.4423C110.213 18.8686 111.361 17.6411 112.807 16.7599C114.254 15.8786 115.889 15.4379 117.713 15.4379C119.568 15.4379 121.203 15.8786 122.619 16.7599C124.065 17.6411 125.181 18.8844 125.968 20.4895C126.785 22.0947 127.194 23.9831 127.194 26.1549V39.7516C127.194 40.2867 127.021 40.7273 126.675 41.0735C126.361 41.3883 125.936 41.5457 125.402 41.5457Z" fill="#9175DB"/>
<path d="M4.71698 41.5457C7.3221 41.5457 9.43396 39.432 9.43396 36.8246C9.43396 34.2172 7.3221 32.1035 4.71698 32.1035C2.11186 32.1035 0 34.2172 0 36.8246C0 39.432 2.11186 41.5457 4.71698 41.5457Z" fill="#9175DB"/>
</g>
<defs>
<clipPath id="clip0">
<rect width="150" height="41.8605" fill="white"/>
</clipPath>
</defs>
</svg>
