<svg width="59" height="90" viewBox="0 0 59 90" fill="none" xmlns="http://www.w3.org/2000/svg">
<path d="M7 22.5265C8.2146 22.4676 9.24234 21.9931 10.0832 21.1031C10.9241 20.2132 11.3445 19.1552 11.3445 17.9293C11.3445 19.1552 11.765 20.2132 12.6058 21.1031C13.4467 21.9931 14.4745 22.4676 15.6891 22.5265C14.4745 22.5855 13.4467 23.0599 12.6058 23.9499C11.765 24.8399 11.3445 25.8978 11.3445 27.1238C11.3445 25.8978 10.9241 24.8399 10.0832 23.9499C9.24234 23.0599 8.2146 22.5855 7 22.5265ZM11.3445 8.94695C13.7036 8.82908 15.7036 7.90668 17.3445 6.17976C18.9854 4.45285 19.8058 2.39293 19.8058 0C19.8058 2.39293 20.6292 4.45285 22.2759 6.17976C23.9226 7.90668 25.9255 8.82908 28.2847 8.94695C26.7314 9.01768 25.3066 9.46267 24.0102 10.2819C22.7139 11.1012 21.6891 12.1857 20.9358 13.5354C20.1825 14.8851 19.8058 16.3497 19.8058 17.9293C19.8058 15.5246 18.9854 13.4558 17.3445 11.723C15.7036 9.99018 13.7036 9.06483 11.3445 8.94695ZM17.546 29.2633C19.3212 29.1807 20.8277 28.4882 22.0657 27.1857C23.3036 25.8831 23.9226 24.3301 23.9226 22.5265C23.9226 24.3301 24.5387 25.8831 25.7708 27.1857C27.0029 28.4882 28.5066 29.1807 30.2818 29.2633C28.5066 29.3458 27.0029 30.0383 25.7708 31.3409C24.5387 32.6434 23.9226 34.1965 23.9226 36C23.9226 34.1965 23.3036 32.6434 22.0657 31.3409C20.8277 30.0383 19.3212 29.3458 17.546 29.2633ZM30.2818 20.3163C32.0569 20.2338 33.5577 19.5442 34.7839 18.2475C36.0102 16.9509 36.6234 15.3949 36.6234 13.5796C36.6234 15.3831 37.2423 16.9361 38.4803 18.2387C39.7183 19.5413 41.2248 20.2338 43 20.3163C41.2248 20.3988 39.7183 21.0884 38.4803 22.3851C37.2423 23.6817 36.6234 25.2318 36.6234 27.0354C36.6234 25.2318 36.0102 23.6817 34.7839 22.3851C33.5577 21.0884 32.0569 20.3988 30.2818 20.3163Z" fill="white"/>
<path d="M0 54.3819C0 53.5616 0.954862 53.0315 1.68148 53.4123C5.33689 55.3276 14.8133 59.1063 28.7436 56.2042C44.3341 52.9561 55.4616 55.2869 58.2932 56.0099C58.7206 56.119 59 56.5045 59 56.9456V86.1071C59 86.8526 58.2029 87.379 57.4948 87.1461C53.9652 85.9855 44.2622 83.7925 28.7436 87.7213C10.7885 92.2669 1.84787 84.5201 0.259495 82.9485C0.0858425 82.7766 0 82.5439 0 82.2996V54.3819Z" fill="#61C94C"/>
<path d="M27.7669 69.389L27.9126 71.5494H28.483L27.8155 69.389H27.7669ZM30.4735 75.324H30.5221L30.3886 73.3093H29.8545L30.4735 75.324ZM27.1722 76.2222V73.3093H26.2619V72.848L27.1722 72.7874V72.0591H26.2619V71.6101L27.1722 71.5494V68.4787H28.1917L29.2719 71.5494H30.3279V68.4787H31.1168V71.5494H31.9907V72.0591H31.1168V72.7874H31.9907V73.3093H31.1168V76.2222H30.0973L29.0777 73.3093H27.9611V76.2222H27.1722ZM29.6482 72.6174L29.6967 72.7874H30.3521L30.3279 72.3747V72.0591H29.454L29.6482 72.6174ZM27.9611 72.3261V72.7874H28.8957L28.6408 72.0713V72.0591H27.949L27.9611 72.3261Z" fill="#286C10"/>
<path d="M34.7754 71.808C34.7754 74.0133 34.1042 75.9859 33.0488 77.393C31.9937 78.7999 30.5836 79.6117 29.0788 79.6117C27.5739 79.6117 26.1639 78.7999 25.1087 77.393C24.0533 75.9859 23.3821 74.0133 23.3821 71.808C23.3821 69.6026 24.0533 67.6301 25.1087 66.2229C26.1639 64.816 27.5739 64.0042 29.0788 64.0042C30.5836 64.0042 31.9937 64.816 33.0488 66.2229C34.1042 67.6301 34.7754 69.6026 34.7754 71.808Z" stroke="#286C10" stroke-width="1.24958"/>
</svg>
