<svg width="91" height="69" viewBox="0 0 91 69" fill="none" xmlns="http://www.w3.org/2000/svg">
<path d="M48.5816 41.0992L48.7828 44.0827H49.5706L48.6487 41.0992H48.5816ZM52.3195 49.2955H52.3865L52.2021 46.5131H51.4646L52.3195 49.2955ZM47.7603 50.5359V46.5131H46.5032V45.8762L47.7603 45.7924V44.7867H46.5032V44.1665L47.7603 44.0827V39.8421H49.1683L50.6601 44.0827H52.1183V39.8421H53.2078V44.0827H54.4146V44.7867H53.2078V45.7924H54.4146V46.5131H53.2078V50.5359H51.7998L50.3919 46.5131H48.8498V50.5359H47.7603ZM51.1797 45.5577L51.2467 45.7924H52.1518L52.1183 45.2225V44.7867H50.9115L51.1797 45.5577ZM48.8498 45.1555V45.7924H50.1405L49.7885 44.8035V44.7867H48.8331L48.8498 45.1555Z" fill="#286C10" fill-opacity="0.5"/>
<path d="M58.2601 45.0117C58.2601 48.0574 57.3332 50.7815 55.8757 52.7247C54.4185 54.6677 52.4712 55.7888 50.393 55.7888C48.3148 55.7888 46.3675 54.6677 44.9103 52.7247C43.4529 50.7815 42.5259 48.0574 42.5259 45.0117C42.5259 41.9661 43.4529 39.242 44.9103 37.2988C46.3675 35.3558 48.3148 34.2347 50.393 34.2347C52.4712 34.2347 54.4185 35.3558 55.8757 37.2988C57.3332 39.242 58.2601 41.9661 58.2601 45.0117Z" stroke="#286C10" stroke-opacity="0.5" stroke-width="1.72568"/>
<path d="M9.40381 20.9462C9.40381 19.8134 10.7225 19.0813 11.7259 19.6071C16.7741 22.2522 29.861 27.4707 49.0989 23.4628C70.6295 18.9772 85.9966 22.1961 89.907 23.1945C90.4973 23.3452 90.8832 23.8776 90.8832 24.4868V64.759C90.8832 65.7884 89.7823 66.5153 88.8044 66.1938C83.9301 64.591 70.5302 61.5624 49.0989 66.9881C24.3028 73.2655 11.9557 62.5672 9.76217 60.3968C9.52236 60.1595 9.40381 59.8381 9.40381 59.5007V20.9462Z" fill="#61C94C" fill-opacity="0.8"/>
<path d="M0 18.729C1.00984 18.68 1.86433 18.2856 2.56345 17.5456C3.26257 16.8057 3.61213 15.9261 3.61213 14.9068C3.61213 15.9261 3.96169 16.8057 4.66082 17.5456C5.35994 18.2856 6.21442 18.68 7.22427 18.729C6.21442 18.778 5.35994 19.1725 4.66082 19.9125C3.96169 20.6524 3.61213 21.532 3.61213 22.5513C3.61213 21.532 3.26257 20.6524 2.56345 19.9125C1.86433 19.1725 1.00984 18.778 0 18.729ZM3.61213 7.43869C5.57356 7.34069 7.2364 6.57379 8.60066 5.13799C9.96492 3.7022 10.6471 1.98953 10.6471 0C10.6471 1.98953 11.3316 3.7022 12.7007 5.13799C14.0698 6.57379 15.7351 7.34069 17.6965 7.43869C16.4051 7.4975 15.2205 7.86747 14.1427 8.54862C13.0649 9.22976 12.2128 10.1314 11.5865 11.2536C10.9602 12.3758 10.6471 13.5935 10.6471 14.9068C10.6471 12.9075 9.96492 11.1874 8.60066 9.74675C7.2364 8.30605 5.57356 7.5367 3.61213 7.43869ZM19.357 16.8914C20.8329 16.8228 22.0806 16.2495 23.1002 15.1714C24.1197 14.0933 24.6295 12.7997 24.6295 11.2903C24.6295 12.7899 25.1441 14.0811 26.1734 15.1641C27.2027 16.247 28.4553 16.8228 29.9312 16.8914C28.4553 16.96 27.2027 17.5334 26.1734 18.6114C25.1441 19.6895 24.6295 20.9783 24.6295 22.4778C24.6295 20.9783 24.1197 19.6895 23.1002 18.6114C22.0806 17.5334 20.8329 16.96 19.357 16.8914Z" fill="#61C94C" fill-opacity="0.8"/>
</svg>
