<svg width="25" height="29" viewBox="0 0 25 29" fill="none" xmlns="http://www.w3.org/2000/svg">
<g clip-path="url(#clip0)">
<path d="M12.5 3.125C19.4036 3.125 25.0001 8.72147 25.0001 15.625C25.0001 22.5286 19.4036 28.1251 12.5 28.1251C5.59647 28.1251 0 22.5286 0 15.625C0 8.72147 5.59647 3.125 12.5 3.125Z" fill="#F4B844"/>
<path d="M12.4999 25.0448C17.7024 25.0448 21.9198 20.8274 21.9198 15.6249C21.9198 10.4225 17.7024 6.20508 12.4999 6.20508C7.29748 6.20508 3.08008 10.4225 3.08008 15.6249C3.08008 20.8274 7.29748 25.0448 12.4999 25.0448Z" fill="#FEDB41"/>
</g>
<path d="M10.625 10.375L10.879 13.3437H11.5821L10.7032 10.375H10.625ZM14.9415 19.2031H15.0196L14.7852 16.3516H14.1016L14.9415 19.2031ZM9.35551 21V16.3516H7.94926V15.4727L9.35551 15.375V14.3008H7.94926V13.4414L9.35551 13.3437V8.57812H11.5235L13.1641 13.3437H14.6094V8.57812H16.2891V13.3437H17.6563V14.3008H16.2891V15.375H17.6563V16.3516H16.2891V21H14.1211L12.5196 16.3516H11.0352V21H9.35551ZM13.5157 14.3398L13.8282 15.375H14.7071L14.6094 14.3008H13.4961L13.5157 14.3398ZM11.0352 15.3555V15.375H12.1875L12.129 15.2187L11.8555 14.3008H10.9571L11.0352 15.3555Z" fill="#F4B844"/>
<defs>
<clipPath id="clip0">
<rect width="25" height="25" fill="white" transform="translate(0 3.125)"/>
</clipPath>
</defs>
</svg>
