<svg width="50" height="50" viewBox="0 0 50 50" fill="none" xmlns="http://www.w3.org/2000/svg">
<path d="M37.4376 13.2282C38.3575 13.2282 39.1032 12.4825 39.1032 11.5626C39.1032 10.6427 38.3575 9.89697 37.4376 9.89697C36.5177 9.89697 35.772 10.6427 35.772 11.5626C35.772 12.4825 36.5177 13.2282 37.4376 13.2282Z" fill="url(#paint0_linear)"/>
<path d="M34.375 0H15.625C6.99688 0 0 6.99688 0 15.625V34.375C0 43.0031 6.99688 50 15.625 50H34.375C43.0031 50 50 43.0031 50 34.375V15.625C50 6.99688 43.0031 0 34.375 0ZM45.3125 34.375C45.3125 40.4062 40.4062 45.3125 34.375 45.3125H15.625C9.59375 45.3125 4.6875 40.4062 4.6875 34.375V15.625C4.6875 9.59375 9.59375 4.6875 15.625 4.6875H34.375C40.4062 4.6875 45.3125 9.59375 45.3125 15.625V34.375Z" fill="url(#paint1_linear)"/>
<path d="M25 12.5C18.0969 12.5 12.5 18.0969 12.5 25C12.5 31.9031 18.0969 37.5 25 37.5C31.9031 37.5 37.5 31.9031 37.5 25C37.5 18.0969 31.9031 12.5 25 12.5ZM25 32.8125C20.6938 32.8125 17.1875 29.3062 17.1875 25C17.1875 20.6906 20.6938 17.1875 25 17.1875C29.3062 17.1875 32.8125 20.6906 32.8125 25C32.8125 29.3062 29.3062 32.8125 25 32.8125Z" fill="url(#paint2_linear)"/>
<defs>
<linearGradient id="paint0_linear" x1="36.2599" y1="12.7406" x2="38.6153" y2="10.3849" gradientUnits="userSpaceOnUse">
<stop stop-color="#FFC107"/>
<stop offset="0.507" stop-color="#F44336"/>
<stop offset="0.99" stop-color="#9C27B0"/>
</linearGradient>
<linearGradient id="paint1_linear" x1="4.57703" y1="45.4233" x2="45.423" y2="4.57672" gradientUnits="userSpaceOnUse">
<stop stop-color="#FFC107"/>
<stop offset="0.507" stop-color="#F44336"/>
<stop offset="0.99" stop-color="#9C27B0"/>
</linearGradient>
<linearGradient id="paint2_linear" x1="16.1614" y1="33.8386" x2="33.8386" y2="16.1614" gradientUnits="userSpaceOnUse">
<stop stop-color="#FFC107"/>
<stop offset="0.507" stop-color="#F44336"/>
<stop offset="0.99" stop-color="#9C27B0"/>
</linearGradient>
</defs>
</svg>
