<svg width="50" height="50" viewBox="0 0 50 50" fill="none" xmlns="http://www.w3.org/2000/svg">
<path d="M25 50C38.8071 50 50 38.8071 50 25C50 11.1929 38.8071 0 25 0C11.1929 0 0 11.1929 0 25C0 38.8071 11.1929 50 25 50Z" fill="#25D366"/>
<path fill-rule="evenodd" clip-rule="evenodd" d="M25.8237 38.909H25.8176C23.3296 38.9081 20.8849 38.2839 18.7135 37.0995L10.833 39.1667L12.942 31.4635C11.641 29.209 10.9565 26.6516 10.9576 24.0316C10.9609 15.8351 17.6297 9.16675 25.8235 9.16675C29.8003 9.16847 33.5328 10.7166 36.3395 13.5266C39.1461 16.3364 40.6909 20.0713 40.6894 24.0434C40.6861 32.2378 34.02 38.9057 25.8237 38.909ZM19.0787 34.4083L19.5299 34.6761C21.427 35.8018 23.6016 36.3975 25.8187 36.3984H25.8237C32.6338 36.3984 38.1767 30.8554 38.1794 24.0424C38.1807 20.741 36.8968 17.6366 34.5639 15.3011C32.2311 12.9656 29.1288 11.6788 25.8285 11.6776C19.0131 11.6776 13.4703 17.22 13.4676 24.0324C13.4667 26.3671 14.1199 28.6409 15.3567 30.608L15.6505 31.0756L14.4023 35.635L19.0787 34.4083ZM32.8043 27.2439C33.0633 27.3691 33.2383 27.4537 33.313 27.5784C33.4058 27.7333 33.4058 28.4769 33.0964 29.3447C32.7868 30.2123 31.3028 31.0042 30.5892 31.1109C29.9493 31.2065 29.1394 31.2464 28.2496 30.9637C27.7101 30.7925 27.0183 30.564 26.1321 30.1812C22.6499 28.6776 20.2965 25.3025 19.8518 24.6647C19.8206 24.62 19.7988 24.5888 19.7867 24.5725L19.7837 24.5686C19.5872 24.3063 18.27 22.5489 18.27 20.73C18.27 19.0191 19.1104 18.1223 19.4973 17.7095C19.5238 17.6812 19.5482 17.6551 19.57 17.6314C19.9105 17.2595 20.3129 17.1665 20.5605 17.1665C20.8081 17.1665 21.056 17.1688 21.2725 17.1796C21.2992 17.181 21.327 17.1809 21.3556 17.1807C21.5721 17.1794 21.842 17.1778 22.1082 17.8173C22.2106 18.0634 22.3605 18.4283 22.5185 18.813C22.8381 19.5912 23.1913 20.4509 23.2534 20.5753C23.3463 20.7613 23.4082 20.9781 23.2844 21.2261C23.2658 21.2633 23.2486 21.2984 23.2322 21.3319C23.1392 21.5217 23.0708 21.6614 22.9129 21.8457C22.8509 21.9182 22.7868 21.9963 22.7226 22.0744C22.5948 22.23 22.4671 22.3857 22.3558 22.4965C22.1698 22.6817 21.9762 22.8826 22.1929 23.2545C22.4096 23.6264 23.1551 24.8427 24.2593 25.8276C25.4463 26.8864 26.478 27.3339 27.0009 27.5608C27.103 27.605 27.1857 27.641 27.2464 27.6713C27.6177 27.8573 27.8344 27.8262 28.0511 27.5784C28.2678 27.3304 28.9797 26.4937 29.2272 26.1219C29.4748 25.7501 29.7225 25.8121 30.0629 25.936C30.4035 26.06 32.2297 26.9586 32.6011 27.1444C32.6736 27.1808 32.7414 27.2136 32.8043 27.2439Z" fill="#FDFDFD"/>
</svg>
